# xmcd
#
# Track frame offsets: 
#        150
#        18585
#        38735
#        66397
#        88148
#        112690
#        138557
#        154366
#        172844
#
# Disc length: 2537 seconds
#
# Revision: 5
# Processed by: cddbd v1.5.2PL0 Copyright (c) Steve Scherf et al.
# Submitted via: ExactAudioCopy v0.99pb3
#
DISCID=7209e709
DTITLE=Malignant Eternal - Alarm
DYEAR=1999
DGENRE=Industrial Black Metal
TTITLE0=Millennium Psycho
TTITLE1=Deathcon 6
TTITLE2=Omniania
TTITLE3=Neonhead
TTITLE4=Exit Eden
TTITLE5=Stained Sculptures
TTITLE6=Beastwork
TTITLE7=Palace of Pleasure
TTITLE8=Enigma II
EXTD=
EXTT0=
EXTT1=
EXTT2=
EXTT3=
EXTT4=
EXTT5=
EXTT6=
EXTT7=
EXTT8=
PLAYORDER=
